<?xml version="1.0" encoding="utf-8"?>
<!-- Generator: Adobe Illustrator 22.0.1, SVG Export Plug-In . SVG Version: 6.00 Build 0)  -->
<svg version="1.1" id="Layer_1" xmlns="http://www.w3.org/2000/svg" xmlns:xlink="http://www.w3.org/1999/xlink" x="0px" y="0px"
	 viewBox="0 0 196 34" style="enable-background:new 0 0 196 34;" xml:space="preserve">
<path d="M8.5,1.8c1,0,1.9,0.1,2.8,0.4c0.9,0.3,1.5,0.6,1.9,0.8l0.6,0.4l1-1.4H15l0.6,6.7h-0.2c-0.2-1.7-0.9-3.2-2.1-4.7
	C12.1,2.7,10.5,2,8.5,2C7.1,2,6.1,2.4,5.3,3.2C4.5,4,4.1,5,4.1,6.1c0,1.2,0.4,2.2,1.3,3c0.9,0.8,1.9,1.5,3.1,2
	c1.2,0.5,2.4,1.1,3.6,1.6c1.2,0.6,2.2,1.4,3.1,2.5c0.9,1.1,1.3,2.4,1.3,3.9c0,2.2-0.8,3.9-2.4,5.1c-1.6,1.2-3.5,1.8-5.8,1.8
	C7.1,26.1,6,26,5,25.6c-1-0.3-1.8-0.6-2.2-1l-0.7-0.5L1,25.6H0.8l-0.3-7.3h0.2c0.2,2.1,0.9,3.9,2.2,5.4c1.3,1.5,3.1,2.2,5.3,2.2
	c1.8,0,3.1-0.5,4-1.4c0.9-0.9,1.4-2.1,1.4-3.7c0-1.1-0.3-2.1-0.9-2.9c-0.6-0.8-1.3-1.4-2.2-1.9c-0.9-0.4-1.8-0.9-2.9-1.4
	c-1-0.5-2-1-2.9-1.5c-0.9-0.5-1.6-1.2-2.2-2.1C2,10.3,1.7,9.2,1.7,8c0-1.8,0.6-3.3,1.9-4.5C4.9,2.4,6.5,1.8,8.5,1.8z"/>
<path d="M26.1,8.7c2.1,0,3.9,0.8,5.1,2.4c1.3,1.6,1.9,3.7,1.9,6.3c0,2.5-0.7,4.6-2.2,6.3c-1.5,1.7-3.4,2.5-5.6,2.5
	c-1.8,0-3.3-0.8-4.5-2.4v6.7c0,1.4,0.1,2.4,0.4,2.7c0.3,0.4,1,0.6,2.3,0.6V34h-8.1v-0.2c1.1-0.1,1.8-0.3,2.1-0.7
	c0.3-0.4,0.4-1.3,0.4-2.6V13.1c0-1.2-0.2-1.9-0.5-2.3c-0.3-0.4-1-0.5-2.1-0.5V10c0.7,0,1.4-0.2,2.4-0.4C18.7,9.4,19.4,9.2,20,9
	l0.9-0.3v2.9C22.2,9.7,23.9,8.7,26.1,8.7z M25,25.8c1.8,0,3.1-0.7,3.8-2.2c0.7-1.5,1.1-3.6,1.1-6.4c0-2.6-0.3-4.6-1-6
	C28.3,9.8,27.2,9,25.6,9c-1.3,0-2.4,0.5-3.3,1.4c-0.9,1-1.3,2.5-1.3,4.5v5.7c0,1.8,0.4,3.1,1.1,3.9C22.8,25.4,23.7,25.8,25,25.8z"/>
<path d="M49.2,23.8l0.2,0c0,0.1,0,0.2-0.1,0.2c0,0.1-0.1,0.3-0.3,0.5c-0.2,0.3-0.3,0.5-0.5,0.7c-0.2,0.2-0.5,0.4-0.8,0.5
	c-0.4,0.2-0.8,0.2-1.2,0.2c-1.8,0-2.8-1.1-2.9-3.2c-0.5,1.1-1.2,1.9-2.2,2.4c-1,0.6-2.1,0.8-3.3,0.8c-1.6,0-2.8-0.3-3.7-1
	c-0.9-0.7-1.3-1.6-1.3-2.8c0-1,0.4-1.8,1.2-2.4c0.8-0.5,2.1-1.1,3.8-1.6l5.4-1.6v-2.7c0-1.8-0.3-3.1-0.8-3.9C42.2,9.4,41.3,9,39.9,9
	c-1.8,0-2.9,1-3.2,2.9c-0.1,0.4-0.1,0.7-0.2,0.9c0,0.2-0.1,0.4-0.2,0.7c-0.1,0.3-0.3,0.5-0.5,0.6c-0.2,0.1-0.4,0.2-0.7,0.2
	c-0.4,0-0.7-0.1-1-0.4c-0.2-0.3-0.4-0.6-0.4-1c0-1,0.5-2,1.6-2.8c1.1-0.8,2.8-1.3,5.1-1.3c4,0,6,1.6,6,4.8v9.6
	c0,0.7,0.1,1.2,0.3,1.5c0.2,0.3,0.5,0.4,1,0.4c0.3,0,0.6-0.1,0.9-0.3c0.2-0.2,0.4-0.4,0.5-0.6L49.2,23.8z M39.3,25.5
	c1.2,0,2.3-0.4,3-1.3c0.8-0.8,1.2-1.9,1.2-3.3V17l-4,1.2c-2.2,0.7-3.3,2-3.3,4.1C36.2,24.4,37.2,25.5,39.3,25.5z"/>
<path d="M53.7,8.6v4.6c0.4-1.3,0.9-2.4,1.7-3.3c0.8-0.9,1.7-1.3,2.8-1.3c0.6,0,1.1,0.1,1.5,0.4c0.4,0.3,0.6,0.7,0.6,1.2
	c0,0.4-0.1,0.8-0.4,1.1c-0.2,0.3-0.5,0.4-0.9,0.4c-0.5,0-1-0.3-1.4-1c-0.4-0.7-0.9-1-1.4-1c-0.6,0-1.2,0.5-1.6,1.6
	c-0.5,1-0.7,2.5-0.7,4.5v6c0,1.5,0.1,2.5,0.4,2.9c0.3,0.4,1,0.6,2.3,0.7v0.2h-8.1v-0.2c1.1-0.1,1.8-0.3,2.1-0.7
	c0.3-0.4,0.4-1.3,0.4-2.8v-8.9c0-1.2-0.2-2-0.5-2.3c-0.3-0.3-1-0.5-2.1-0.5V10c0.7,0,1.4-0.2,2.3-0.4c0.9-0.2,1.6-0.5,2.2-0.7
	L53.7,8.6z"/>
<path d="M64.6,5.1v4.1h4.7v0.2h-4.7V22c0,2.1,0.8,3.2,2.3,3.2c0.5,0,1-0.1,1.5-0.4c0.5-0.2,0.8-0.5,1-0.8l0.3-0.4l0.1,0.2
	c-0.1,0.2-0.3,0.4-0.5,0.6c-0.2,0.2-0.7,0.6-1.5,1c-0.8,0.4-1.6,0.6-2.4,0.6c-2.6,0-3.9-1.3-3.9-4V9.5h-1.8V9.3
	c0.9-0.2,1.8-0.7,2.7-1.5C63.4,7,64,6.1,64.4,5.1H64.6z"/>
<path d="M85.6,23.8l0.2,0c0,0.1,0,0.2-0.1,0.2c0,0.1-0.1,0.3-0.3,0.5c-0.2,0.3-0.3,0.5-0.5,0.7c-0.2,0.2-0.5,0.4-0.8,0.5
	c-0.4,0.2-0.8,0.2-1.2,0.2c-1.8,0-2.8-1.1-2.9-3.2c-0.5,1.1-1.2,1.9-2.2,2.4c-1,0.6-2.1,0.8-3.3,0.8c-1.6,0-2.8-0.3-3.7-1
	c-0.9-0.7-1.3-1.6-1.3-2.8c0-1,0.4-1.8,1.2-2.4c0.8-0.5,2.1-1.1,3.8-1.6l5.4-1.6v-2.7c0-1.8-0.3-3.1-0.8-3.9C78.6,9.4,77.6,9,76.3,9
	c-1.8,0-2.9,1-3.2,2.9c-0.1,0.4-0.1,0.7-0.2,0.9c0,0.2-0.1,0.4-0.2,0.7c-0.1,0.3-0.3,0.5-0.5,0.6c-0.2,0.1-0.4,0.2-0.7,0.2
	c-0.4,0-0.7-0.1-1-0.4c-0.2-0.3-0.4-0.6-0.4-1c0-1,0.5-2,1.6-2.8c1.1-0.8,2.8-1.3,5.1-1.3c4,0,6,1.6,6,4.8v9.6
	c0,0.7,0.1,1.2,0.3,1.5c0.2,0.3,0.5,0.4,1,0.4c0.3,0,0.6-0.1,0.9-0.3c0.2-0.2,0.4-0.4,0.5-0.6L85.6,23.8z M75.7,25.5
	c1.2,0,2.3-0.4,3-1.3c0.8-0.8,1.2-1.9,1.2-3.3V17l-4,1.2c-2.2,0.7-3.3,2-3.3,4.1C72.6,24.4,73.6,25.5,75.7,25.5z"/>
<path d="M100.1,15h-2.5v6.9c0,1.5,0.1,2.5,0.4,2.9c0.3,0.4,1,0.6,2.3,0.6v0.2h-9v-0.2c1.4-0.1,2.3-0.3,2.6-0.6
	c0.3-0.3,0.4-1.3,0.4-2.9V6c0-1.6-0.1-2.6-0.4-2.9c-0.3-0.3-1.1-0.5-2.5-0.6V2.3h8.8c2.9,0,5.2,0.5,6.8,1.6c1.6,1.1,2.4,2.6,2.4,4.5
	c0,2-0.9,3.6-2.6,4.8C104.9,14.4,102.7,15,100.1,15z M100,2.5h-2.5v12.2h2.3c1.9,0,3.3-0.6,4.3-1.7c1-1.1,1.4-2.6,1.4-4.5
	C105.6,4.5,103.7,2.5,100,2.5z"/>
<path d="M113.3,0v21.9c0,1.4,0.1,2.4,0.4,2.8c0.3,0.4,0.9,0.6,2.1,0.7v0.2H108v-0.2c1.1-0.1,1.7-0.3,1.9-0.7
	c0.2-0.4,0.4-1.3,0.4-2.8V4.5c0-1.2-0.1-2-0.4-2.4c-0.3-0.4-1-0.5-2.1-0.5V1.4c0.7,0,1.5-0.2,2.4-0.4c0.9-0.2,1.6-0.5,2.2-0.7
	L113.3,0z"/>
<path d="M130.8,23.8l0.2,0c0,0.1,0,0.2-0.1,0.2c0,0.1-0.1,0.3-0.3,0.5c-0.2,0.3-0.3,0.5-0.5,0.7c-0.2,0.2-0.5,0.4-0.8,0.5
	c-0.4,0.2-0.8,0.2-1.2,0.2c-1.8,0-2.8-1.1-2.9-3.2c-0.5,1.1-1.2,1.9-2.2,2.4c-1,0.6-2.1,0.8-3.3,0.8c-1.6,0-2.8-0.3-3.7-1
	c-0.9-0.7-1.3-1.6-1.3-2.8c0-1,0.4-1.8,1.2-2.4c0.8-0.5,2.1-1.1,3.8-1.6l5.4-1.6v-2.7c0-1.8-0.3-3.1-0.8-3.9
	c-0.5-0.8-1.5-1.2-2.8-1.2c-1.8,0-2.9,1-3.2,2.9c-0.1,0.4-0.1,0.7-0.2,0.9c0,0.2-0.1,0.4-0.2,0.7c-0.1,0.3-0.3,0.5-0.5,0.6
	c-0.2,0.1-0.4,0.2-0.7,0.2c-0.4,0-0.7-0.1-1-0.4c-0.2-0.3-0.4-0.6-0.4-1c0-1,0.5-2,1.6-2.8c1.1-0.8,2.8-1.3,5.1-1.3c4,0,6,1.6,6,4.8
	v9.6c0,0.7,0.1,1.2,0.3,1.5c0.2,0.3,0.5,0.4,1,0.4c0.3,0,0.6-0.1,0.9-0.3c0.2-0.2,0.4-0.4,0.5-0.6L130.8,23.8z M120.9,25.5
	c1.2,0,2.3-0.4,3-1.3c0.8-0.8,1.2-1.9,1.2-3.3V17l-4,1.2c-2.2,0.7-3.3,2-3.3,4.1C117.8,24.4,118.9,25.5,120.9,25.5z"/>
<path d="M138.6,25.7c1.4,0,2.5-0.3,3.4-1c0.9-0.7,1.5-1.4,1.8-2.3h0.2c-0.4,1-1.1,1.8-2,2.6s-2.3,1.2-4,1.2c-2.5,0-4.5-0.8-5.9-2.3
	c-1.5-1.6-2.2-3.6-2.2-6.2c0-2.5,0.7-4.6,2.2-6.3c1.5-1.7,3.3-2.6,5.6-2.6c2,0,3.5,0.6,4.7,1.8c1.1,1.2,1.8,2.9,1.8,5h-10.9
	c0,0.9-0.1,1.6-0.1,2.1C133.2,23,135,25.7,138.6,25.7z M137.6,8.9c-2.6,0-4,2.1-4.4,6.3h7.4c0.2-0.6,0.3-1.3,0.3-2.1
	C141,10.3,139.9,8.9,137.6,8.9z"/>
<path d="M149.5,8.7c0.7,0,1.4,0.1,2,0.3c0.7,0.2,1.1,0.3,1.4,0.5l0.5,0.2l0.7-0.6h0.1l0.4,4.3h-0.2c-0.2-1.2-0.7-2.2-1.5-3.2
	c-0.8-0.9-1.9-1.4-3.3-1.4h-0.1c-1,0-1.8,0.3-2.3,0.8c-0.6,0.5-0.8,1.2-0.8,2.2c0,0.8,0.3,1.5,0.9,2.1c0.6,0.6,1.4,1.1,2.2,1.5
	c0.9,0.4,1.8,0.8,2.6,1.3c0.9,0.4,1.6,1.1,2.3,1.8c0.6,0.8,0.9,1.7,0.9,2.8c0,1.5-0.5,2.7-1.5,3.6c-1,0.9-2.3,1.3-3.9,1.3
	c-0.7,0-1.5-0.1-2.2-0.3c-0.7-0.2-1.3-0.5-1.7-0.7l-0.5-0.3l-0.9,1.2h-0.1l-0.3-5.1h0.2c0.4,1.4,1,2.6,2,3.6c1,1,2.2,1.5,3.6,1.5
	c1.1,0,2-0.3,2.6-0.8s0.9-1.3,0.9-2.3c0-0.8-0.3-1.4-0.9-2c-0.6-0.6-1.3-1.1-2.2-1.5c-0.9-0.4-1.7-0.8-2.6-1.3
	c-0.9-0.5-1.6-1.1-2.2-1.9c-0.6-0.8-0.9-1.8-0.9-2.9c0-1.4,0.5-2.5,1.4-3.4C147,9.1,148.2,8.7,149.5,8.7z"/>
<path d="M164.2,25.7c1.4,0,2.5-0.3,3.4-1c0.9-0.7,1.5-1.4,1.8-2.3h0.2c-0.4,1-1,1.8-2,2.6c-1,0.8-2.3,1.2-4,1.2
	c-2.5,0-4.5-0.8-5.9-2.3c-1.5-1.6-2.2-3.6-2.2-6.2c0-2.5,0.7-4.6,2.2-6.3c1.5-1.7,3.3-2.6,5.6-2.6c2,0,3.5,0.6,4.7,1.8
	c1.1,1.2,1.8,2.9,1.8,5h-10.9c0,0.9-0.1,1.6-0.1,2.1C158.8,23,160.6,25.7,164.2,25.7z M163.3,8.9c-2.6,0-4,2.1-4.4,6.3h7.4
	c0.2-0.6,0.3-1.3,0.3-2.1C166.7,10.3,165.5,8.9,163.3,8.9z"/>
<path d="M185,21.9c0,1.4,0.1,2.4,0.4,2.8c0.3,0.4,1,0.6,2.1,0.7v0.2h-7.7v-0.2c1-0.1,1.7-0.3,1.9-0.7c0.2-0.4,0.4-1.3,0.4-2.8v-7.3
	c0-1.9-0.3-3.2-0.8-4c-0.5-0.8-1.4-1.2-2.6-1.2c-1.2,0-2.2,0.4-3,1.3c-0.8,0.8-1.3,2-1.3,3.6v7.7c0,1.4,0.1,2.4,0.4,2.8
	c0.3,0.4,0.9,0.6,2.1,0.7v0.2H169v-0.2c1-0.1,1.7-0.3,1.9-0.7c0.2-0.4,0.4-1.3,0.4-2.8v-8.7c0-1.2-0.2-2-0.5-2.3
	c-0.3-0.4-1-0.6-2.1-0.6v-0.2c0.7,0,1.4-0.2,2.4-0.4c0.9-0.2,1.7-0.5,2.3-0.7l0.9-0.3v3.3c1.2-2.2,3.1-3.3,5.6-3.3
	c1.6,0,2.9,0.4,3.7,1.2c0.9,0.8,1.3,2,1.3,3.7V21.9z"/>
<path d="M190.2,5.1v4.1h4.7v0.2h-4.7V22c0,2.1,0.8,3.2,2.3,3.2c0.5,0,1-0.1,1.5-0.4c0.5-0.2,0.8-0.5,1-0.8l0.3-0.4l0.1,0.2
	c-0.1,0.2-0.3,0.4-0.5,0.6c-0.2,0.2-0.7,0.6-1.5,1c-0.8,0.4-1.6,0.6-2.4,0.6c-2.6,0-3.9-1.3-3.9-4V9.5h-1.8V9.3
	c0.9-0.2,1.8-0.7,2.7-1.5c0.9-0.8,1.5-1.7,1.9-2.7H190.2z"/>
</svg>
